<!-- Generator: Adobe Illustrator 19.2.1, SVG Export Plug-In  -->
<svg version="1.1"
	 xmlns="http://www.w3.org/2000/svg" xmlns:xlink="http://www.w3.org/1999/xlink" xmlns:a="http://ns.adobe.com/AdobeSVGViewerExtensions/3.0/"
	 x="0px" y="0px" width="70.7px" height="70px" viewBox="0 0 70.7 70" enable-background="new 0 0 70.7 70" xml:space="preserve">
<defs>
</defs>
<g>
	<path fill="#FFFFFF" d="M68.8,67h-0.6V38.7h1c0.9,0,1.6-0.6,1.6-1.5c0-0.9-0.7-1.5-1.6-1.5h-4v-8.5H66c0.6,0,1.2-0.5,1.5-1.1l3-7.9
		c0.1-0.2,0.1-0.4,0.1-0.6v-0.1c0-0.4-0.1-0.8-0.4-1c0-0.1-0.1,0-0.1,0c-0.3-0.2-0.6-0.3-1-0.3h-8.9v-1.5H63c0.1,0,0.2-0.2,0.3-0.2
		c0.1-0.1,0.2-0.2,0.3-0.3l0.1-0.1c0.1-0.1,0.3-0.2,0.3-0.4c0.1-0.1,0.2-0.2,0.2-0.3v-0.5c0-0.1-0.1-0.1-0.2-0.2
		c-0.1-0.1,0-0.1-0.1-0.2c0-0.1-0.1-0.1-0.1-0.2c0-0.1,0-0.1-0.1-0.2l-0.1-0.1c0,0-0.1-0.1-0.1-0.2l-0.1-0.1c0,0-0.1-0.1-0.2-0.1
		c-0.1,0-0.2-0.1-0.2-0.1c0,0,0,0-0.1,0L36.1,0.1c-0.4-0.2-0.9-0.1-1.2,0L7.7,11.7c-0.1,0-0.2,0.1-0.2,0.2c-0.1,0-0.1,0.1-0.2,0.1
		c-0.1,0-0.1,0.1-0.1,0.2c0,0-0.1,0.1-0.1,0.2c0,0.1-0.1,0.1-0.1,0.1c0,0.1-0.1,0.1-0.1,0.2C7,12.6,7,12.6,7,12.7c0,0.1,0,0.1,0,0.2
		c-0.1,0.1,0,0.1,0,0.2v0.5c0,0.1,0,0.2,0,0.3c0.1,0.1,0.1,0.2,0.1,0.2c0,0.1,0.1,0.1,0.1,0.1s0.1,0.1,0.1,0.2l0.1,0.1
		c0.1,0,0.1,0.1,0.2,0.1c0,0,0.1,0.2,0.2,0.2c0.1,0,0.1,0.2,0.2,0.2h0.1c0.1,0,0.2,0,0.2,0c0.1,0,0.1,0,0.2,0c0.1,0,0.1,0,0.2,0h2.1
		v1.5H1.8c-0.4,0-0.8,0-1,0.3c-0.1,0.1-0.2,0-0.3,0.1c-0.2,0.3-0.5,0.6-0.5,1v0.1c0,0.2,0.2,0.4,0.2,0.6l3.2,7.9
		c0.2,0.6,0.8,1.1,1.5,1.1h0.5v8.5H1.8c-0.9,0-1.6,0.6-1.6,1.5c0,0.9,0.7,1.5,1.6,1.5h0.7V67H2.2c-0.9,0-1.6,0.6-1.6,1.5
		c0,0.9,0.7,1.5,1.6,1.5h66.6c0.9,0,1.6-0.6,1.6-1.5C70.3,67.7,69.6,67,68.8,67z M60.2,19.4v-0.1h6.6L65,23.7H53.3v-2h4.6
		C59.2,21.7,60.2,20.7,60.2,19.4z M62.2,27.2v8.5h-9v-8.5H62.2z M35.5,3.4l19.4,8.4H16L35.5,3.4z M13.9,14.8h43.3v4H13.9V14.8z
		 M56.7,58.6v3H14.4v-3H56.7z M17.4,35.7H9v-8.5h8.5V35.7z M30.9,55.1V39.5c0-2.6,2-4.8,4.5-4.8h0.2c2.6,0,4.8,2.3,4.8,4.8v15.6
		H30.9z M50.3,55.1h-7V39.5c0-4.3-3.5-7.8-7.7-7.8h-0.2c-4.3,0-7.5,3.6-7.5,7.8v15.6h-7.5V21.7h29.9V55.1z M4.1,19.3h6.4v0.1
		c0,1.3,1.3,2.3,2.5,2.3h4.4v2H5.9L4.1,19.3z M8.6,62.5l-2,4.5H5.5V38.7h11.9v16.4h-3.9c-1.3,0-2.6,1.2-2.6,2.5v3.9H10
		C9.4,61.6,8.8,61.9,8.6,62.5z M10,67l1-2.5h48.9l1,2.5H10z M65.2,67h-0.8l-2-4.5c-0.2-0.5-0.8-0.9-1.4-0.9h-1.2v-3.9
		c0-1.3-1.1-2.5-2.3-2.5h-4.2V38.7h11.9V67z"/>
	<polyline fill="#FFFFFF" points="49.2,22.5 49.2,24.7 49.2,24.7 49.2,27.7 49.2,27.9 49.2,31 49.2,34.1 49.2,40.5 	"/>
	<circle fill="#FFFFFF" cx="35.3" cy="7.6" r="1.7"/>
</g>
</svg>
