<svg xmlns="http://www.w3.org/2000/svg" width="1371.1" height="891.5" viewBox="0 0 1371.1 891.5">
  <path opacity=".15" d="M0 0h1371.1v891.5H0V0z"/>
  <g opacity=".25" stroke="#FFF" stroke-miterlimit="10">
    <path stroke-width=".8504" d="M129 93.9h57.5v48.5H129V93.9z"/>
    <path stroke-width=".8504" d="M197 93.9h57.5v48.5H197V93.9z"/>
    <path stroke-width=".8504" d="M265 93.9h57.5v48.5H265V93.9z"/>
    <path stroke-width=".8504" d="M635 93.9h57.5v48.5H635V93.9z"/>
    <path stroke-width=".8504" d="M706.5 93.9h54v48.5h-54V93.9z"/>
    <path stroke-width=".8504" d="M771 93.9h57.5v48.5H771V93.9z"/>
    <path stroke-width=".8504" d="M840 93.9h43.2v48.5H840V93.9z"/>
    <path stroke-width=".8504" d="M901.2 93.9h51.5v48.5h-51.5V93.9z"/>
    <path stroke-width=".8504" d="M972 93.9h51.5v48.5H972V93.9z"/>
    <path stroke-width=".8504" d="M1039.7 93.9h51.5v48.5h-51.5V93.9z"/>
    <path stroke-width=".8504" d="M1107 93.9h51.5v48.5H1107V93.9z"/>
    <path stroke-width=".8504" d="M1181 93.9h51.5v48.5H1181V93.9z"/>
    <path stroke-width=".8504" d="M129 160.9h57.5v91.5H129v-91.5z"/>
    <path stroke-width=".8504" d="M197 160.9h57.5v91.5H197v-91.5z"/>
    <path stroke-width=".8504" d="M265 160.9h57.5v91.5H265v-91.5z"/>
    <path stroke-width=".8504" d="M339.5 160.9H397v91.5h-57.5v-91.5z"/>
    <path stroke-width=".8504" d="M407.5 160.9H465v91.5h-57.5v-91.5z"/>
    <path stroke-width=".8504" d="M129 276.9h57.5v91.5H129v-91.5z"/>
    <path stroke-width=".8504" d="M197 276.9h57.5v91.5H197v-91.5z"/>
    <path stroke-width=".8504" d="M265 276.9h57.5v91.5H265v-91.5z"/>
    <path stroke-width=".8504" d="M339.5 276.9H397v91.5h-57.5v-91.5z"/>
    <path stroke-width=".8504" d="M407.5 276.9H465v91.5h-57.5v-91.5z"/>
    <path stroke-width=".8504" d="M129 388.2h57.5v91.5H129v-91.5z"/>
    <path stroke-width=".8504" d="M197 388.2h57.5v91.5H197v-91.5z"/>
    <path stroke-width=".8504" d="M265 388.2h57.5v91.5H265v-91.5z"/>
    <path stroke-width=".8504" d="M339.5 388.2H397v91.5h-57.5v-91.5z"/>
    <path stroke-width=".8504" d="M407.5 388.2H465v91.5h-57.5v-91.5z"/>
    <path stroke-width=".8504" d="M129 494.2h57.5v91.5H129v-91.5z"/>
    <path stroke-width=".8504" d="M197 494.2h57.5v91.5H197v-91.5z"/>
    <path stroke-width=".8504" d="M265 494.2h57.5v91.5H265v-91.5z"/>
    <path stroke-width=".8504" d="M339.5 494.2H397v91.5h-57.5v-91.5z"/>
    <path stroke-width=".8504" d="M407.5 494.2H465v91.5h-57.5v-91.5z"/>
    <path stroke-width=".8504" d="M129 601.2h57.5v91.5H129v-91.5z"/>
    <path stroke-width=".8504" d="M197 601.2h57.5v91.5H197v-91.5z"/>
    <path stroke-width=".8504" d="M265 601.2h57.5v91.5H265v-91.5z"/>
    <path stroke-width=".8504" d="M339.5 601.2H397v91.5h-57.5v-91.5z"/>
    <path stroke-width=".8504" d="M407.5 601.2H465v91.5h-57.5v-91.5z"/>
    <path stroke-width=".8504" d="M129 712.6h57.5v67.8H129v-67.8z"/>
    <path stroke-width=".8504" d="M197 712.6h57.5v67.8H197v-67.8z"/>
    <path stroke-width=".8504" d="M265 712.6h57.5v67.8H265v-67.8z"/>
    <path stroke-width=".8504" d="M339.5 712.6H397v67.8h-57.5v-67.8z"/>
    <path stroke-width=".8504" d="M407.5 712.6H465v67.8h-57.5v-67.8z"/>
    <path stroke-width=".8504" d="M491.8 276.9H543v91.5h-51.2v-91.5z"/>
    <path stroke-width=".8504" d="M506.3 388.2h22.2v91.5h-22.2v-91.5z"/>
    <path stroke-width=".8504" d="M506.3 494.2h22.2v91.5h-22.2v-91.5z"/>
    <path stroke-width=".8504" d="M506.3 606.4h22.2v86.3h-22.2v-86.3z"/>
    <path stroke-width=".8504" d="M506.3 712.6h22.2v66.5h-22.2v-66.5z"/>
    <path stroke-width=".8504" d="M491.8 160.9H543v91.5h-51.2v-91.5z"/>
    <path stroke-width=".8504" d="M569 160.9h57.5v91.5H569v-91.5z"/>
    <path stroke-width=".8504" d="M635 160.9h57.5v91.5H635v-91.5z"/>
    <path stroke-width=".8504" d="M706.5 160.9h48v91.5h-48v-91.5z"/>
    <path stroke-width=".8504" d="M773.3 160.9h48v91.5h-48v-91.5z"/>
    <path stroke-width=".8504" d="M840 160.9h38.5v91.5H840v-91.5z"/>
    <path stroke-width=".8504" d="M840 276.9h38.5v91.5H840v-91.5z"/>
    <path stroke-width=".8504" d="M840 388.2h38.5v91.5H840v-91.5z"/>
    <path stroke-width=".8504" d="M840 494.2h38.5v91.5H840v-91.5z"/>
    <path stroke-width=".8504" d="M840 613.9h38.5v78.8H840v-78.8z"/>
    <path stroke-width=".8504" d="M840 712.6h38.5v67.8H840v-67.8z"/>
    <path stroke-width=".8504" d="M952.7 160.9h38.5v91.5h-38.5v-91.5z"/>
    <path stroke-width=".8504" d="M1005.9 160.9h38.5v91.5h-38.5v-91.5z"/>
    <path stroke-width=".8504" d="M952.7 276.9h38.5v91.5h-38.5v-91.5z"/>
    <path stroke-width=".8504" d="M1003.5 276.9h38.5v91.5h-38.5v-91.5z"/>
    <path stroke-width=".8504" d="M952.7 388.2h38.5v91.5h-38.5v-91.5z"/>
    <path stroke-width=".8504" d="M1003.5 388.2h38.5v91.5h-38.5v-91.5z"/>
    <path stroke-width=".8504" d="M1266.5 388.2h35v91.5h-35v-91.5z"/>
    <path stroke-width=".8504" d="M1266.5 494.2h35v91.5h-35v-91.5z"/>
    <path stroke-width=".8504" d="M1266.5 610.8h35v127.6h-35V610.8z"/>
    <path stroke-width=".8504" d="M952.7 494.2h38.5v91.5h-38.5v-91.5z"/>
    <path stroke-width=".8504" d="M1003.5 494.2h38.5v91.5h-38.5v-91.5z"/>
    <path stroke-width=".8504" d="M952.7 613.9h38.5v78.8h-38.5v-78.8z"/>
    <path stroke-width=".8504" d="M1003.5 613.9h38.5v78.8h-38.5v-78.8z"/>
    <path stroke-width=".8504" d="M952.7 712.6h38.5v67.8h-38.5v-67.8z"/>
    <path stroke-width=".8504" d="M1005.2 712.6h38.5v67.8h-38.5v-67.8z"/>
    <path stroke-width=".8504" d="M569 276.9h57.5v91.5H569v-91.5z"/>
    <path stroke-width=".8504" d="M768.5 276.9H826v91.5h-57.5v-91.5z"/>
    <path stroke-width=".8504" d="M768.5 388.2H826v91.5h-57.5v-91.5z"/>
    <path stroke-width=".8504" d="M768.5 494.2H826v91.5h-57.5v-91.5z"/>
    <path stroke-width=".8504" d="M768.5 613.9H826v78.8h-57.5v-78.8z"/>
    <path stroke-width=".8504" d="M635 276.9h57.5v91.5H635v-91.5z"/>
    <path stroke-width=".8504" d="M706.5 276.9h48v91.5h-48v-91.5z"/>
    <path stroke-width=".8504" d="M569 388.2h57.5v91.5H569v-91.5z"/>
    <path stroke-width=".8504" d="M635 388.2h57.5v91.5H635v-91.5z"/>
    <path stroke-width=".8504" d="M706.5 388.2h48v91.5h-48v-91.5z"/>
    <path stroke-width=".8504" d="M569 494.2h57.5v91.5H569v-91.5z"/>
    <path stroke-width=".8504" d="M635 494.2h57.5v91.5H635v-91.5z"/>
    <path stroke-width=".8504" d="M706.5 494.2h48v91.5h-48v-91.5z"/>
    <path stroke-width=".8504" d="M569 613.9h57.5v78.8H569v-78.8z"/>
    <path stroke-width=".8504" d="M635 613.9h57.5v78.8H635v-78.8z"/>
    <path stroke-width=".8504" d="M706.5 613.9h48v78.8h-48v-78.8z"/>
    <path stroke-width=".8504" d="M569 712.6h57.5v67.8H569v-67.8z"/>
    <path stroke-width=".8504" d="M635 712.6h57.5v67.8H635v-67.8z"/>
    <path stroke-width=".8504" d="M706.5 712.6h48v67.8h-48v-67.8z"/>
    <path stroke-width=".8504" d="M768.5 712.6H826v67.8h-57.5v-67.8z"/>
    <path stroke-width=".8504" d="M891.6 160.9h48v91.5h-48v-91.5z"/>
    <path stroke-width=".8504" d="M1059 160.9h48v91.5h-48v-91.5z"/>
    <path stroke-width=".8504" d="M1134.5 160.9h48v91.5h-48v-91.5z"/>
    <path stroke-width=".8504" d="M1197.8 160.9h48v91.5h-48v-91.5z"/>
    <path stroke-width=".8504" d="M886.9 276.9h57.5v91.5h-57.5v-91.5z"/>
    <path stroke-width=".8504" d="M1054.2 276.9h57.5v91.5h-57.5v-91.5z"/>
    <path stroke-width=".8504" d="M1197 276.9h57.5v91.5H1197v-91.5z"/>
    <path stroke-width=".8504" d="M886.9 388.2h57.5v91.5h-57.5v-91.5z"/>
    <path stroke-width=".8504" d="M886.9 494.2h57.5v91.5h-57.5v-91.5z"/>
    <path stroke-width=".8504" d="M886.9 613.9h57.5v78.8h-57.5v-78.8z"/>
    <path stroke-width=".8504" d="M886.9 712.6h57.5v67.8h-57.5v-67.8z"/>
    <path stroke-width=".8504" d="M1054.2 388.2h57.5v91.5h-57.5v-91.5z"/>
    <path stroke-width=".8504" d="M1054.2 494.2h57.5v91.5h-57.5v-91.5z"/>
    <path stroke-width=".8504" d="M1054.2 613.9h57.5v78.8h-57.5v-78.8z"/>
    <path stroke-width=".8504" d="M1124 276.9h57.5v91.5H1124v-91.5z"/>
    <path stroke-width=".8504" d="M1124 388.2h57.5v91.5H1124v-91.5z"/>
    <path stroke-width=".8504" d="M1124 494.2h57.5v91.5H1124v-91.5z"/>
    <path stroke-width=".8504" d="M1124 613.9h57.5v78.8H1124v-78.8z"/>
    <path stroke-width=".8504" d="M1197 276.9h57.5v91.5H1197v-91.5z"/>
    <path stroke-width=".8504" d="M1197 388.2h57.5v91.5H1197v-91.5z"/>
    <path stroke-width=".8504" d="M1197 494.2h57.5v91.5H1197v-91.5z"/>
    <path stroke-width=".8504" d="M1197 613.9h57.5v78.8H1197v-78.8z"/>
    <path stroke-width=".8504" d="M1054.2 712.6h57.5v67.8h-57.5v-67.8z"/>
    <path stroke-width=".8504" d="M1124 712.6h57.5v67.8H1124v-67.8z"/>
    <path stroke-width=".8504" d="M339.5 93.9h28v48.5h-28V93.9z"/>
    <path stroke-width=".8504" d="M597.8 93.9h28v48.5h-28V93.9z"/>
    <path d="M1253 734.9v-21h-57v68h29v-47h28z"/>
    <path stroke-width=".8504" d="M1271 67.9h30.5v55.5H1271V67.9z"/>
    <path stroke-width=".8504" d="M1266.5 123.4h35v47.5h-35v-47.5z"/>
    <path stroke-width=".8504" d="M1266.5 170.9h35v38h-35v-38z"/>
    <path stroke-width=".8504" d="M1266.5 208.9h35v38h-35v-38z"/>
    <path stroke-width=".8504" d="M1266.5 246.9h35v38h-35v-38z"/>
    <path stroke-width=".8504" d="M1266.5 284.9h35v38h-35v-38z"/>
    <path stroke-width=".8504" d="M1266.5 322.9h35v38h-35v-38z"/>
    <path stroke-width=".8504" d="M626.5 39.1h66v28.8h-66V39.1z"/>
    <path stroke-width=".8504" d="M61.6 39.1h42.1v24H61.6v-24z"/>
    <path stroke-width=".8504" d="M61.6 85.7h27.6v24H61.6v-24z"/>
    <path stroke-width=".8504" d="M61.6 121.1h27.6v27.6H61.6v-27.6z"/>
    <path stroke-width=".8504" d="M61.6 167.5h27.6v23.3H61.6v-23.3z"/>
    <path stroke-width=".8504" d="M61.6 195h27.6v23.3H61.6V195z"/>
    <path stroke-width=".8504" d="M61.6 222.6h27.6v21.5H61.6v-21.5z"/>
    <path stroke-width=".8504" d="M61.6 287.7h27.6v21.5H61.6v-21.5z"/>
    <path stroke-width=".8504" d="M61.6 318.9h27.6v21.5H61.6v-21.5z"/>
    <path stroke-width=".8504" d="M61.6 350.2h27.6v21.5H61.6v-21.5z"/>
    <path stroke-width=".8504" d="M61.6 386.4h27.6v21.5H61.6v-21.5z"/>
    <path stroke-width=".8504" d="M61.6 417.4h27.6v21.5H61.6v-21.5z"/>
    <path stroke-width=".8504" d="M61.6 445.5h27.6V467H61.6v-21.5z"/>
    <path stroke-width=".8504" d="M61.6 495.5h27.6V517H61.6v-21.5z"/>
    <path stroke-width=".8504" d="M61.6 529.5h27.6V551H61.6v-21.5z"/>
    <path stroke-width=".8504" d="M61.6 564.5h27.6V586H61.6v-21.5z"/>
    <path stroke-width=".8504" d="M61.6 608.5h27.6v29.1H61.6v-29.1z"/>
    <path stroke-width=".8504" d="M61.6 650.6h27.6v29.1H61.6v-29.1z"/>
    <path stroke-width=".8504" d="M61.6 728.5h27.6v24.6H61.6v-24.6z"/>
    <path stroke-width=".8504" d="M61.6 757h27.6v27.6H61.6V757z"/>
    <path stroke-width=".8504" d="M61.6 811.4h35.8v22H61.6v-22z"/>
    <path stroke-width=".8504" d="M97.4 811.4h35.8v22H97.4v-22z"/>
    <path stroke-width=".8504" d="M133.2 811.4H169v22h-35.8v-22z"/>
    <path stroke-width=".8504" d="M169 811.4h35.8v22H169v-22z"/>
    <path stroke-width=".8504" d="M204.8 811.4h35.8v22h-35.8v-22z"/>
    <path stroke-width=".8504" d="M240.6 811.4h35.8v22h-35.8v-22z"/>
    <path stroke-width=".8504" d="M276.4 811.4h35.8v22h-35.8v-22z"/>
    <path stroke-width=".8504" d="M312.2 811.4H348v22h-35.8v-22z"/>
    <path stroke-width=".8504" d="M541.5 811.4h35.8v22h-35.8v-22z"/>
    <path stroke-width=".8504" d="M577.3 811.4h35.8v22h-35.8v-22z"/>
    <path stroke-width=".8504" d="M613.1 811.4h35.8v22h-35.8v-22z"/>
    <path stroke-width=".8504" d="M648.9 811.4h35.8v22h-35.8v-22z"/>
    <path stroke-width=".8504" d="M684.7 811.4h35.8v22h-35.8v-22z"/>
    <path stroke-width=".8504" d="M720.5 811.4h35.8v22h-35.8v-22z"/>
    <path stroke-width=".8504" d="M756.3 811.4h35.8v22h-35.8v-22z"/>
    <path stroke-width=".8504" d="M792.2 811.4H828v22h-35.8v-22z"/>
    <path stroke-width=".8504" d="M828.7 811.4h35.8v22h-35.8v-22z"/>
    <path stroke-width=".8504" d="M864.5 811.4h35.8v22h-35.8v-22z"/>
    <path stroke-width=".8504" d="M900.3 811.4h35.8v22h-35.8v-22z"/>
    <path stroke-width=".8504" d="M936.2 811.4H972v22h-35.8v-22z"/>
    <path stroke-width=".8504" d="M972 811.4h35.8v22H972v-22z"/>
    <path stroke-width=".8504" d="M1007.8 811.4h35.9v22h-35.9v-22z"/>
    <path stroke-width=".8504" d="M1043.7 811.4h14.3v22h-14.3v-22z"/>
    <path stroke-width=".8504" d="M1058 811.4h47.5v22H1058v-22z"/>
    <path stroke-width=".8504" d="M1105.5 811.4h60.5v22h-60.5v-22z"/>
    <path stroke-width=".8504" d="M1166 811.4h70.1v22H1166v-22z"/>
    <path stroke-width=".8504" d="M61.6 691.6h27.6v31.8H61.6v-31.8z"/>
    <path stroke-width=".8504" d="M61.6 252.4h27.6V280H61.6v-27.6z"/>
    <path stroke-width=".8504" d="M111.1 39.1h36.3v24h-36.3v-24z"/>
    <path stroke-width=".8504" d="M160.1 39.1h41.6v24h-41.6v-24z"/>
    <path stroke-width=".8504" d="M212.9 39.1h41.6v24h-41.6v-24z"/>
    <path stroke-width=".8504" d="M265.7 39.1h97.5v24h-97.5v-24z"/>
    <path stroke-width=".8504" d="M713.8 39.1h66v28.8h-66V39.1z"/>
    <path stroke-width=".8504" d="M801.2 39.1h66v28.8h-66V39.1z"/>
    <path stroke-width=".8504" d="M888.5 39.1h66v28.8h-66V39.1z"/>
    <path stroke-width=".8504" d="M975.8 39.1h66v28.8h-66V39.1z"/>
    <path stroke-width=".8504" d="M1174.5 39.1h84.3v28.8h-84.3V39.1z"/>
    <path stroke-width=".8504" d="M1063.2 39.1h82.7v28.8h-82.7V39.1z"/>
    <path stroke-width=".8504" d="M375.5 39.1h213.7v103.3H375.5V39.1z"/>
    <path stroke-width=".8504" d="M462.5 38.7h39.7v22.7h-39.7V38.7z"/>
    <path stroke-width=".8504" d="M436.3 79.4h26.3v50h-26.3v-50z"/>
    <path stroke-width=".8504" d="M375.5 89.4h60.8v20h-60.8v-20z"/>
    <path stroke-width=".8504" d="M527.8 129.4h-26.3v-50h26.3v50z"/>
    <path stroke-width=".8504" d="M588.5 109.4h-60.8v-20h60.8v20z"/>
    <path stroke-width=".8504" d="M502.2 38.7h43.5v22.7h-43.5V38.7z"/>
    <path stroke-width=".8504" d="M545.7 38.7h43.5v22.7h-43.5V38.7z"/>
    <path stroke-width=".8504" d="M375.5 38.7H419v22.7h-43.5V38.7z"/>
    <path stroke-width=".8504" d="M419 38.7h43.5v22.7H419V38.7z"/>
    <path d="M540 802.9v32H347v-32h107v-9h43v9h43z"/>
    <path d="M1236 770.9h34v12h14v15h15v37h-62.9l-.1-64z"/>
  </g>
  <path opacity=".5" fill="none" stroke="#FFF" stroke-width="2.5387" stroke-miterlimit="10" d="M129 93.9h57.5v48.5H129V93.9z"/>
  <path opacity=".5" fill="none" stroke="#FFF" stroke-width="2.5387" stroke-miterlimit="10" d="M197 93.9h57.5v48.5H197V93.9z"/>
  <path opacity=".5" fill="none" stroke="#FFF" stroke-width="2.5387" stroke-miterlimit="10" d="M265 93.9h57.5v48.5H265V93.9z"/>
  <path opacity=".5" fill="none" stroke="#FFF" stroke-width="2.5387" stroke-miterlimit="10" d="M635 93.9h57.5v48.5H635V93.9z"/>
  <path opacity=".5" fill="none" stroke="#FFF" stroke-width="2.5387" stroke-miterlimit="10" d="M706.5 93.9h54v48.5h-54V93.9z"/>
  <path opacity=".5" fill="none" stroke="#FFF" stroke-width="2.5387" stroke-miterlimit="10" d="M771 93.9h57.5v48.5H771V93.9z"/>
  <path opacity=".5" fill="none" stroke="#FFF" stroke-width="2.5387" stroke-miterlimit="10" d="M840 93.9h43.2v48.5H840V93.9z"/>
  <path opacity=".5" fill="none" stroke="#FFF" stroke-width="2.5387" stroke-miterlimit="10" d="M901.2 93.9h51.5v48.5h-51.5V93.9z"/>
  <path opacity=".5" fill="none" stroke="#FFF" stroke-width="2.5387" stroke-miterlimit="10" d="M972 93.9h51.5v48.5H972V93.9z"/>
  <path opacity=".5" fill="none" stroke="#FFF" stroke-width="2.5387" stroke-miterlimit="10" d="M1039.7 93.9h51.5v48.5h-51.5V93.9z"/>
  <path opacity=".5" fill="none" stroke="#FFF" stroke-width="2.5387" stroke-miterlimit="10" d="M1107 93.9h51.5v48.5H1107V93.9z"/>
  <path opacity=".5" fill="none" stroke="#FFF" stroke-width="2.5387" stroke-miterlimit="10" d="M1181 93.9h51.5v48.5H1181V93.9z"/>
  <path opacity=".5" fill="none" stroke="#FFF" stroke-width="2.5387" stroke-miterlimit="10" d="M129 160.9h57.5v91.5H129v-91.5z"/>
  <path opacity=".5" fill="none" stroke="#FFF" stroke-width="2.5387" stroke-miterlimit="10" d="M197 160.9h57.5v91.5H197v-91.5z"/>
  <path opacity=".5" fill="none" stroke="#FFF" stroke-width="2.5387" stroke-miterlimit="10" d="M265 160.9h57.5v91.5H265v-91.5z"/>
  <path opacity=".5" fill="none" stroke="#FFF" stroke-width="2.5387" stroke-miterlimit="10" d="M339.5 160.9H397v91.5h-57.5v-91.5z"/>
  <path opacity=".5" fill="none" stroke="#FFF" stroke-width="2.5387" stroke-miterlimit="10" d="M407.5 160.9H465v91.5h-57.5v-91.5z"/>
  <path opacity=".5" fill="none" stroke="#FFF" stroke-width="2.5387" stroke-miterlimit="10" d="M129 276.9h57.5v91.5H129v-91.5z"/>
  <path opacity=".5" fill="none" stroke="#FFF" stroke-width="2.5387" stroke-miterlimit="10" d="M197 276.9h57.5v91.5H197v-91.5z"/>
  <path opacity=".5" fill="none" stroke="#FFF" stroke-width="2.5387" stroke-miterlimit="10" d="M265 276.9h57.5v91.5H265v-91.5z"/>
  <path opacity=".5" fill="none" stroke="#FFF" stroke-width="2.5387" stroke-miterlimit="10" d="M339.5 276.9H397v91.5h-57.5v-91.5z"/>
  <path opacity=".5" fill="none" stroke="#FFF" stroke-width="2.5387" stroke-miterlimit="10" d="M407.5 276.9H465v91.5h-57.5v-91.5z"/>
  <path opacity=".5" fill="none" stroke="#FFF" stroke-width="2.5387" stroke-miterlimit="10" d="M129 388.2h57.5v91.5H129v-91.5z"/>
  <path opacity=".5" fill="none" stroke="#FFF" stroke-width="2.5387" stroke-miterlimit="10" d="M197 388.2h57.5v91.5H197v-91.5z"/>
  <path opacity=".5" fill="none" stroke="#FFF" stroke-width="2.5387" stroke-miterlimit="10" d="M265 388.2h57.5v91.5H265v-91.5z"/>
  <path opacity=".5" fill="none" stroke="#FFF" stroke-width="2.5387" stroke-miterlimit="10" d="M339.5 388.2H397v91.5h-57.5v-91.5z"/>
  <path opacity=".5" fill="none" stroke="#FFF" stroke-width="2.5387" stroke-miterlimit="10" d="M407.5 388.2H465v91.5h-57.5v-91.5z"/>
  <path opacity=".5" fill="none" stroke="#FFF" stroke-width="2.5387" stroke-miterlimit="10" d="M129 494.2h57.5v91.5H129v-91.5z"/>
  <path opacity=".5" fill="none" stroke="#FFF" stroke-width="2.5387" stroke-miterlimit="10" d="M197 494.2h57.5v91.5H197v-91.5z"/>
  <path opacity=".5" fill="none" stroke="#FFF" stroke-width="2.5387" stroke-miterlimit="10" d="M265 494.2h57.5v91.5H265v-91.5z"/>
  <path opacity=".5" fill="none" stroke="#FFF" stroke-width="2.5387" stroke-miterlimit="10" d="M339.5 494.2H397v91.5h-57.5v-91.5z"/>
  <path opacity=".5" fill="none" stroke="#FFF" stroke-width="2.5387" stroke-miterlimit="10" d="M407.5 494.2H465v91.5h-57.5v-91.5z"/>
  <path opacity=".5" fill="none" stroke="#FFF" stroke-width="2.5387" stroke-miterlimit="10" d="M129 601.2h57.5v91.5H129v-91.5z"/>
  <path opacity=".5" fill="none" stroke="#FFF" stroke-width="2.5387" stroke-miterlimit="10" d="M197 601.2h57.5v91.5H197v-91.5z"/>
  <path opacity=".5" fill="none" stroke="#FFF" stroke-width="2.5387" stroke-miterlimit="10" d="M265 601.2h57.5v91.5H265v-91.5z"/>
  <path opacity=".5" fill="none" stroke="#FFF" stroke-width="2.5387" stroke-miterlimit="10" d="M339.5 601.2H397v91.5h-57.5v-91.5z"/>
  <path opacity=".5" fill="none" stroke="#FFF" stroke-width="2.5387" stroke-miterlimit="10" d="M407.5 601.2H465v91.5h-57.5v-91.5z"/>
  <path opacity=".5" fill="none" stroke="#FFF" stroke-width="2.5387" stroke-miterlimit="10" d="M129 712.6h57.5v67.8H129v-67.8z"/>
  <path opacity=".5" fill="none" stroke="#FFF" stroke-width="2.5387" stroke-miterlimit="10" d="M197 712.6h57.5v67.8H197v-67.8z"/>
  <path opacity=".5" fill="none" stroke="#FFF" stroke-width="2.5387" stroke-miterlimit="10" d="M265 712.6h57.5v67.8H265v-67.8z"/>
  <path opacity=".5" fill="none" stroke="#FFF" stroke-width="2.5387" stroke-miterlimit="10" d="M339.5 712.6H397v67.8h-57.5v-67.8z"/>
  <path opacity=".5" fill="none" stroke="#FFF" stroke-width="2.5387" stroke-miterlimit="10" d="M407.5 712.6H465v67.8h-57.5v-67.8z"/>
  <path opacity=".5" fill="none" stroke="#FFF" stroke-width="2.5387" stroke-miterlimit="10" d="M491.8 276.9H543v91.5h-51.2v-91.5z"/>
  <path opacity=".5" fill="none" stroke="#FFF" stroke-width="2.5387" stroke-miterlimit="10" d="M506.3 388.2h22.2v91.5h-22.2v-91.5z"/>
  <path opacity=".5" fill="none" stroke="#FFF" stroke-width="2.5387" stroke-miterlimit="10" d="M506.3 494.2h22.2v91.5h-22.2v-91.5z"/>
  <path opacity=".5" fill="none" stroke="#FFF" stroke-width="2.5387" stroke-miterlimit="10" d="M506.3 606.4h22.2v86.3h-22.2v-86.3z"/>
  <path opacity=".5" fill="none" stroke="#FFF" stroke-width="2.5387" stroke-miterlimit="10" d="M506.3 712.6h22.2v66.5h-22.2v-66.5z"/>
  <path opacity=".5" fill="none" stroke="#FFF" stroke-width="2.5387" stroke-miterlimit="10" d="M491.8 160.9H543v91.5h-51.2v-91.5z"/>
  <path opacity=".5" fill="none" stroke="#FFF" stroke-width="2.5387" stroke-miterlimit="10" d="M569 160.9h57.5v91.5H569v-91.5z"/>
  <path opacity=".5" fill="none" stroke="#FFF" stroke-width="2.5387" stroke-miterlimit="10" d="M635 160.9h57.5v91.5H635v-91.5z"/>
  <path opacity=".5" fill="none" stroke="#FFF" stroke-width="2.5387" stroke-miterlimit="10" d="M706.5 160.9h48v91.5h-48v-91.5z"/>
  <path opacity=".5" fill="none" stroke="#FFF" stroke-width="2.5387" stroke-miterlimit="10" d="M773.3 160.9h48v91.5h-48v-91.5z"/>
  <path opacity=".5" fill="none" stroke="#FFF" stroke-width="2.5387" stroke-miterlimit="10" d="M840 160.9h38.5v91.5H840v-91.5z"/>
  <path opacity=".5" fill="none" stroke="#FFF" stroke-width="2.5387" stroke-miterlimit="10" d="M840 276.9h38.5v91.5H840v-91.5z"/>
  <path opacity=".5" fill="none" stroke="#FFF" stroke-width="2.5387" stroke-miterlimit="10" d="M840 388.2h38.5v91.5H840v-91.5z"/>
  <path opacity=".5" fill="none" stroke="#FFF" stroke-width="2.5387" stroke-miterlimit="10" d="M840 494.2h38.5v91.5H840v-91.5z"/>
  <path opacity=".5" fill="none" stroke="#FFF" stroke-width="2.5387" stroke-miterlimit="10" d="M840 613.9h38.5v78.8H840v-78.8z"/>
  <path opacity=".5" fill="none" stroke="#FFF" stroke-width="2.5387" stroke-miterlimit="10" d="M840 712.6h38.5v67.8H840v-67.8z"/>
  <path opacity=".5" fill="none" stroke="#FFF" stroke-width="2.5387" stroke-miterlimit="10" d="M952.7 160.9h38.5v91.5h-38.5v-91.5z"/>
  <path opacity=".5" fill="none" stroke="#FFF" stroke-width="2.5387" stroke-miterlimit="10" d="M1005.9 160.9h38.5v91.5h-38.5v-91.5z"/>
  <path opacity=".5" fill="none" stroke="#FFF" stroke-width="2.5387" stroke-miterlimit="10" d="M952.7 276.9h38.5v91.5h-38.5v-91.5z"/>
  <path opacity=".5" fill="none" stroke="#FFF" stroke-width="2.5387" stroke-miterlimit="10" d="M1003.5 276.9h38.5v91.5h-38.5v-91.5z"/>
  <path opacity=".5" fill="none" stroke="#FFF" stroke-width="2.5387" stroke-miterlimit="10" d="M952.7 388.2h38.5v91.5h-38.5v-91.5z"/>
  <path opacity=".5" fill="none" stroke="#FFF" stroke-width="2.5387" stroke-miterlimit="10" d="M1003.5 388.2h38.5v91.5h-38.5v-91.5z"/>
  <path opacity=".5" fill="none" stroke="#FFF" stroke-width="2.5387" stroke-miterlimit="10" d="M1266.5 388.2h35v91.5h-35v-91.5z"/>
  <path opacity=".5" fill="none" stroke="#FFF" stroke-width="2.5387" stroke-miterlimit="10" d="M1266.5 494.2h35v91.5h-35v-91.5z"/>
  <path opacity=".5" fill="none" stroke="#FFF" stroke-width="2.5387" stroke-miterlimit="10" d="M1266.5 610.8h35v127.6h-35V610.8z"/>
  <path opacity=".5" fill="none" stroke="#FFF" stroke-width="2.5387" stroke-miterlimit="10" d="M952.7 494.2h38.5v91.5h-38.5v-91.5z"/>
  <path opacity=".5" fill="none" stroke="#FFF" stroke-width="2.5387" stroke-miterlimit="10" d="M1003.5 494.2h38.5v91.5h-38.5v-91.5z"/>
  <path opacity=".5" fill="none" stroke="#FFF" stroke-width="2.5387" stroke-miterlimit="10" d="M952.7 613.9h38.5v78.8h-38.5v-78.8z"/>
  <path opacity=".5" fill="none" stroke="#FFF" stroke-width="2.5387" stroke-miterlimit="10" d="M1003.5 613.9h38.5v78.8h-38.5v-78.8z"/>
  <path opacity=".5" fill="none" stroke="#FFF" stroke-width="2.5387" stroke-miterlimit="10" d="M952.7 712.6h38.5v67.8h-38.5v-67.8z"/>
  <path opacity=".5" fill="none" stroke="#FFF" stroke-width="2.5387" stroke-miterlimit="10" d="M1005.2 712.6h38.5v67.8h-38.5v-67.8z"/>
  <path opacity=".5" fill="none" stroke="#FFF" stroke-width="2.5387" stroke-miterlimit="10" d="M569 276.9h57.5v91.5H569v-91.5z"/>
  <path opacity=".5" fill="none" stroke="#FFF" stroke-width="2.5387" stroke-miterlimit="10" d="M768.5 276.9H826v91.5h-57.5v-91.5z"/>
  <path opacity=".5" fill="none" stroke="#FFF" stroke-width="2.5387" stroke-miterlimit="10" d="M768.5 388.2H826v91.5h-57.5v-91.5z"/>
  <path opacity=".5" fill="none" stroke="#FFF" stroke-width="2.5387" stroke-miterlimit="10" d="M768.5 494.2H826v91.5h-57.5v-91.5z"/>
  <path opacity=".5" fill="none" stroke="#FFF" stroke-width="2.5387" stroke-miterlimit="10" d="M768.5 613.9H826v78.8h-57.5v-78.8z"/>
  <path opacity=".5" fill="none" stroke="#FFF" stroke-width="2.5387" stroke-miterlimit="10" d="M635 276.9h57.5v91.5H635v-91.5z"/>
  <path opacity=".5" fill="none" stroke="#FFF" stroke-width="2.5387" stroke-miterlimit="10" d="M706.5 276.9h48v91.5h-48v-91.5z"/>
  <path opacity=".5" fill="none" stroke="#FFF" stroke-width="2.5387" stroke-miterlimit="10" d="M569 388.2h57.5v91.5H569v-91.5z"/>
  <path opacity=".5" fill="none" stroke="#FFF" stroke-width="2.5387" stroke-miterlimit="10" d="M635 388.2h57.5v91.5H635v-91.5z"/>
  <path opacity=".5" fill="none" stroke="#FFF" stroke-width="2.5387" stroke-miterlimit="10" d="M706.5 388.2h48v91.5h-48v-91.5z"/>
  <path opacity=".5" fill="none" stroke="#FFF" stroke-width="2.5387" stroke-miterlimit="10" d="M569 494.2h57.5v91.5H569v-91.5z"/>
  <path opacity=".5" fill="none" stroke="#FFF" stroke-width="2.5387" stroke-miterlimit="10" d="M635 494.2h57.5v91.5H635v-91.5z"/>
  <path opacity=".5" fill="none" stroke="#FFF" stroke-width="2.5387" stroke-miterlimit="10" d="M706.5 494.2h48v91.5h-48v-91.5z"/>
  <path opacity=".5" fill="none" stroke="#FFF" stroke-width="2.5387" stroke-miterlimit="10" d="M569 613.9h57.5v78.8H569v-78.8z"/>
  <path opacity=".5" fill="none" stroke="#FFF" stroke-width="2.5387" stroke-miterlimit="10" d="M635 613.9h57.5v78.8H635v-78.8z"/>
  <path opacity=".5" fill="none" stroke="#FFF" stroke-width="2.5387" stroke-miterlimit="10" d="M706.5 613.9h48v78.8h-48v-78.8z"/>
  <path opacity=".5" fill="none" stroke="#FFF" stroke-width="2.5387" stroke-miterlimit="10" d="M569 712.6h57.5v67.8H569v-67.8z"/>
  <path opacity=".5" fill="none" stroke="#FFF" stroke-width="2.5387" stroke-miterlimit="10" d="M635 712.6h57.5v67.8H635v-67.8z"/>
  <path opacity=".5" fill="none" stroke="#FFF" stroke-width="2.5387" stroke-miterlimit="10" d="M706.5 712.6h48v67.8h-48v-67.8z"/>
  <path opacity=".5" fill="none" stroke="#FFF" stroke-width="2.5387" stroke-miterlimit="10" d="M768.5 712.6H826v67.8h-57.5v-67.8z"/>
  <path opacity=".5" fill="none" stroke="#FFF" stroke-width="2.5387" stroke-miterlimit="10" d="M891.6 160.9h48v91.5h-48v-91.5z"/>
  <path opacity=".5" fill="none" stroke="#FFF" stroke-width="2.5387" stroke-miterlimit="10" d="M1059 160.9h48v91.5h-48v-91.5z"/>
  <path opacity=".5" fill="none" stroke="#FFF" stroke-width="2.5387" stroke-miterlimit="10" d="M1134.5 160.9h48v91.5h-48v-91.5z"/>
  <path opacity=".5" fill="none" stroke="#FFF" stroke-width="2.5387" stroke-miterlimit="10" d="M1197.8 160.9h48v91.5h-48v-91.5z"/>
  <path opacity=".5" fill="none" stroke="#FFF" stroke-width="2.5387" stroke-miterlimit="10" d="M886.9 276.9h57.5v91.5h-57.5v-91.5z"/>
  <path opacity=".5" fill="none" stroke="#FFF" stroke-width="2.5387" stroke-miterlimit="10" d="M1054.2 276.9h57.5v91.5h-57.5v-91.5z"/>
  <path opacity=".5" fill="none" stroke="#FFF" stroke-width="2.5387" stroke-miterlimit="10" d="M1197 276.9h57.5v91.5H1197v-91.5z"/>
  <path opacity=".5" fill="none" stroke="#FFF" stroke-width="2.5387" stroke-miterlimit="10" d="M886.9 388.2h57.5v91.5h-57.5v-91.5z"/>
  <path opacity=".5" fill="none" stroke="#FFF" stroke-width="2.5387" stroke-miterlimit="10" d="M886.9 494.2h57.5v91.5h-57.5v-91.5z"/>
  <path opacity=".5" fill="none" stroke="#FFF" stroke-width="2.5387" stroke-miterlimit="10" d="M886.9 613.9h57.5v78.8h-57.5v-78.8z"/>
  <path opacity=".5" fill="none" stroke="#FFF" stroke-width="2.5387" stroke-miterlimit="10" d="M886.9 712.6h57.5v67.8h-57.5v-67.8z"/>
  <path opacity=".5" fill="none" stroke="#FFF" stroke-width="2.5387" stroke-miterlimit="10" d="M1054.2 388.2h57.5v91.5h-57.5v-91.5z"/>
  <path opacity=".5" fill="none" stroke="#FFF" stroke-width="2.5387" stroke-miterlimit="10" d="M1054.2 494.2h57.5v91.5h-57.5v-91.5z"/>
  <path opacity=".5" fill="none" stroke="#FFF" stroke-width="2.5387" stroke-miterlimit="10" d="M1054.2 613.9h57.5v78.8h-57.5v-78.8z"/>
  <path opacity=".5" fill="none" stroke="#FFF" stroke-width="2.5387" stroke-miterlimit="10" d="M1124 276.9h57.5v91.5H1124v-91.5z"/>
  <path opacity=".5" fill="none" stroke="#FFF" stroke-width="2.5387" stroke-miterlimit="10" d="M1124 388.2h57.5v91.5H1124v-91.5z"/>
  <path opacity=".5" fill="none" stroke="#FFF" stroke-width="2.5387" stroke-miterlimit="10" d="M1124 494.2h57.5v91.5H1124v-91.5z"/>
  <path opacity=".5" fill="none" stroke="#FFF" stroke-width="2.5387" stroke-miterlimit="10" d="M1124 613.9h57.5v78.8H1124v-78.8z"/>
  <path opacity=".5" fill="none" stroke="#FFF" stroke-width="2.5387" stroke-miterlimit="10" d="M1197 276.9h57.5v91.5H1197v-91.5z"/>
  <path opacity=".5" fill="none" stroke="#FFF" stroke-width="2.5387" stroke-miterlimit="10" d="M1197 388.2h57.5v91.5H1197v-91.5z"/>
  <path opacity=".5" fill="none" stroke="#FFF" stroke-width="2.5387" stroke-miterlimit="10" d="M1197 494.2h57.5v91.5H1197v-91.5z"/>
  <path opacity=".5" fill="none" stroke="#FFF" stroke-width="2.5387" stroke-miterlimit="10" d="M1197 613.9h57.5v78.8H1197v-78.8z"/>
  <path opacity=".5" fill="none" stroke="#FFF" stroke-width="2.5387" stroke-miterlimit="10" d="M1054.2 712.6h57.5v67.8h-57.5v-67.8z"/>
  <path opacity=".5" fill="none" stroke="#FFF" stroke-width="2.5387" stroke-miterlimit="10" d="M1124 712.6h57.5v67.8H1124v-67.8z"/>
  <path opacity=".5" fill="none" stroke="#FFF" stroke-width="2.5387" stroke-miterlimit="10" d="M339.5 93.9h28v48.5h-28V93.9z"/>
  <path opacity=".5" fill="none" stroke="#FFF" stroke-width="2.5387" stroke-miterlimit="10" d="M597.8 93.9h28v48.5h-28V93.9z"/>
  <path opacity=".5" fill="none" stroke="#FFF" stroke-width="3" stroke-miterlimit="10" d="M1254 733.9v-21h-57v68h29v-47h28z"/>
  <path opacity=".5" fill="none" stroke="#FFF" stroke-width="2.5387" stroke-miterlimit="10" d="M1271 67.9h30.5v55.5H1271V67.9z"/>
  <path opacity=".5" fill="none" stroke="#FFF" stroke-width="2.5387" stroke-miterlimit="10" d="M1266.5 123.4h35v47.5h-35v-47.5z"/>
  <path opacity=".5" fill="none" stroke="#FFF" stroke-width="2.5387" stroke-miterlimit="10" d="M1266.5 170.9h35v38h-35v-38z"/>
  <path opacity=".5" fill="none" stroke="#FFF" stroke-width="2.5387" stroke-miterlimit="10" d="M1266.5 208.9h35v38h-35v-38z"/>
  <path opacity=".5" fill="none" stroke="#FFF" stroke-width="2.5387" stroke-miterlimit="10" d="M1266.5 246.9h35v38h-35v-38z"/>
  <path opacity=".5" fill="none" stroke="#FFF" stroke-width="2.5387" stroke-miterlimit="10" d="M1266.5 284.9h35v38h-35v-38z"/>
  <path opacity=".5" fill="none" stroke="#FFF" stroke-width="2.5387" stroke-miterlimit="10" d="M1266.5 322.9h35v38h-35v-38z"/>
  <path opacity=".5" fill="none" stroke="#FFF" stroke-width="2.5387" stroke-miterlimit="10" d="M626.5 39.1h66v28.8h-66V39.1z"/>
  <path opacity=".5" fill="none" stroke="#FFF" stroke-width="2.5387" stroke-miterlimit="10" d="M61.6 39.1h42.1v24H61.6v-24z"/>
  <path opacity=".5" fill="none" stroke="#FFF" stroke-width="2.5387" stroke-miterlimit="10" d="M61.6 85.7h27.6v24H61.6v-24z"/>
  <path opacity=".5" fill="none" stroke="#FFF" stroke-width="2.5387" stroke-miterlimit="10" d="M61.6 121.1h27.6v27.6H61.6v-27.6z"/>
  <path opacity=".5" fill="none" stroke="#FFF" stroke-width="2.5387" stroke-miterlimit="10" d="M61.6 167.5h27.6v23.3H61.6v-23.3z"/>
  <path opacity=".5" fill="none" stroke="#FFF" stroke-width="2.5387" stroke-miterlimit="10" d="M61.6 195h27.6v23.3H61.6V195z"/>
  <path opacity=".5" fill="none" stroke="#FFF" stroke-width="2.5387" stroke-miterlimit="10" d="M61.6 222.6h27.6v21.5H61.6v-21.5z"/>
  <path opacity=".5" fill="none" stroke="#FFF" stroke-width="2.5387" stroke-miterlimit="10" d="M61.6 287.7h27.6v21.5H61.6v-21.5z"/>
  <path opacity=".5" fill="none" stroke="#FFF" stroke-width="2.5387" stroke-miterlimit="10" d="M61.6 318.9h27.6v21.5H61.6v-21.5z"/>
  <path opacity=".5" fill="none" stroke="#FFF" stroke-width="2.5387" stroke-miterlimit="10" d="M61.6 350.2h27.6v21.5H61.6v-21.5z"/>
  <path opacity=".5" fill="none" stroke="#FFF" stroke-width="2.5387" stroke-miterlimit="10" d="M61.6 386.4h27.6v21.5H61.6v-21.5z"/>
  <path opacity=".5" fill="none" stroke="#FFF" stroke-width="2.5387" stroke-miterlimit="10" d="M61.6 417.4h27.6v21.5H61.6v-21.5z"/>
  <path opacity=".5" fill="none" stroke="#FFF" stroke-width="2.5387" stroke-miterlimit="10" d="M61.6 445.5h27.6V467H61.6v-21.5z"/>
  <path opacity=".5" fill="none" stroke="#FFF" stroke-width="2.5387" stroke-miterlimit="10" d="M61.6 495.5h27.6V517H61.6v-21.5z"/>
  <path opacity=".5" fill="none" stroke="#FFF" stroke-width="2.5387" stroke-miterlimit="10" d="M61.6 529.5h27.6V551H61.6v-21.5z"/>
  <path opacity=".5" fill="none" stroke="#FFF" stroke-width="2.5387" stroke-miterlimit="10" d="M61.6 564.5h27.6V586H61.6v-21.5z"/>
  <path opacity=".5" fill="none" stroke="#FFF" stroke-width="2.5387" stroke-miterlimit="10" d="M61.6 608.5h27.6v29.1H61.6v-29.1z"/>
  <path opacity=".5" fill="none" stroke="#FFF" stroke-width="2.5387" stroke-miterlimit="10" d="M61.6 650.6h27.6v29.1H61.6v-29.1z"/>
  <path opacity=".5" fill="none" stroke="#FFF" stroke-width="2.5387" stroke-miterlimit="10" d="M61.6 728.5h27.6v24.6H61.6v-24.6z"/>
  <path opacity=".5" fill="none" stroke="#FFF" stroke-width="2.5387" stroke-miterlimit="10" d="M61.6 757h27.6v27.6H61.6V757z"/>
  <path opacity=".5" fill="none" stroke="#FFF" stroke-width="2.5387" stroke-miterlimit="10" d="M61.6 811.4h35.8v22H61.6v-22z"/>
  <path opacity=".5" fill="none" stroke="#FFF" stroke-width="2.5387" stroke-miterlimit="10" d="M97.4 811.4h35.8v22H97.4v-22z"/>
  <path opacity=".5" fill="none" stroke="#FFF" stroke-width="2.5387" stroke-miterlimit="10" d="M133.2 811.4H169v22h-35.8v-22z"/>
  <path opacity=".5" fill="none" stroke="#FFF" stroke-width="2.5387" stroke-miterlimit="10" d="M169 811.4h35.8v22H169v-22z"/>
  <path opacity=".5" fill="none" stroke="#FFF" stroke-width="2.5387" stroke-miterlimit="10" d="M204.8 811.4h35.8v22h-35.8v-22z"/>
  <path opacity=".5" fill="none" stroke="#FFF" stroke-width="2.5387" stroke-miterlimit="10" d="M240.6 811.4h35.8v22h-35.8v-22z"/>
  <path opacity=".5" fill="none" stroke="#FFF" stroke-width="2.5387" stroke-miterlimit="10" d="M276.4 811.4h35.8v22h-35.8v-22z"/>
  <path opacity=".5" fill="none" stroke="#FFF" stroke-width="2.5387" stroke-miterlimit="10" d="M312.2 811.4H348v22h-35.8v-22z"/>
  <path opacity=".5" fill="none" stroke="#FFF" stroke-width="2.5387" stroke-miterlimit="10" d="M541.5 811.4h35.8v22h-35.8v-22z"/>
  <path opacity=".5" fill="none" stroke="#FFF" stroke-width="2.5387" stroke-miterlimit="10" d="M577.3 811.4h35.8v22h-35.8v-22z"/>
  <path opacity=".5" fill="none" stroke="#FFF" stroke-width="2.5387" stroke-miterlimit="10" d="M613.1 811.4h35.8v22h-35.8v-22z"/>
  <path opacity=".5" fill="none" stroke="#FFF" stroke-width="2.5387" stroke-miterlimit="10" d="M648.9 811.4h35.8v22h-35.8v-22z"/>
  <path opacity=".5" fill="none" stroke="#FFF" stroke-width="2.5387" stroke-miterlimit="10" d="M684.7 811.4h35.8v22h-35.8v-22z"/>
  <path opacity=".5" fill="none" stroke="#FFF" stroke-width="2.5387" stroke-miterlimit="10" d="M720.5 811.4h35.8v22h-35.8v-22z"/>
  <path opacity=".5" fill="none" stroke="#FFF" stroke-width="2.5387" stroke-miterlimit="10" d="M756.3 811.4h35.8v22h-35.8v-22z"/>
  <path opacity=".5" fill="none" stroke="#FFF" stroke-width="2.5387" stroke-miterlimit="10" d="M792.2 811.4H828v22h-35.8v-22z"/>
  <path opacity=".5" fill="none" stroke="#FFF" stroke-width="2.5387" stroke-miterlimit="10" d="M828.7 811.4h35.8v22h-35.8v-22z"/>
  <path opacity=".5" fill="none" stroke="#FFF" stroke-width="2.5387" stroke-miterlimit="10" d="M864.5 811.4h35.8v22h-35.8v-22z"/>
  <path opacity=".5" fill="none" stroke="#FFF" stroke-width="2.5387" stroke-miterlimit="10" d="M900.3 811.4h35.8v22h-35.8v-22z"/>
  <path opacity=".5" fill="none" stroke="#FFF" stroke-width="2.5387" stroke-miterlimit="10" d="M936.2 811.4H972v22h-35.8v-22z"/>
  <path opacity=".5" fill="none" stroke="#FFF" stroke-width="2.5387" stroke-miterlimit="10" d="M972 811.4h35.8v22H972v-22z"/>
  <path opacity=".5" fill="none" stroke="#FFF" stroke-width="2.5387" stroke-miterlimit="10" d="M1007.8 811.4h35.9v22h-35.9v-22z"/>
  <path opacity=".5" fill="none" stroke="#FFF" stroke-width="2.5387" stroke-miterlimit="10" d="M1043.7 811.4h14.3v22h-14.3v-22z"/>
  <path opacity=".5" fill="none" stroke="#FFF" stroke-width="2.5387" stroke-miterlimit="10" d="M1058 811.4h47.5v22H1058v-22z"/>
  <path opacity=".5" fill="none" stroke="#FFF" stroke-width="2.5387" stroke-miterlimit="10" d="M1105.5 811.4h60.5v22h-60.5v-22z"/>
  <path opacity=".5" fill="none" stroke="#FFF" stroke-width="2.5387" stroke-miterlimit="10" d="M1166 811.4h70.1v22H1166v-22z"/>
  <path opacity=".5" fill="none" stroke="#FFF" stroke-width="2.5387" stroke-miterlimit="10" d="M61.6 691.6h27.6v31.8H61.6v-31.8z"/>
  <path opacity=".5" fill="none" stroke="#FFF" stroke-width="2.5387" stroke-miterlimit="10" d="M61.6 252.4h27.6V280H61.6v-27.6z"/>
  <path opacity=".5" fill="none" stroke="#FFF" stroke-width="2.5387" stroke-miterlimit="10" d="M111.1 39.1h36.3v24h-36.3v-24z"/>
  <path opacity=".5" fill="none" stroke="#FFF" stroke-width="2.5387" stroke-miterlimit="10" d="M160.1 39.1h41.6v24h-41.6v-24z"/>
  <path opacity=".5" fill="none" stroke="#FFF" stroke-width="2.5387" stroke-miterlimit="10" d="M212.9 39.1h41.6v24h-41.6v-24z"/>
  <path opacity=".5" fill="none" stroke="#FFF" stroke-width="2.5387" stroke-miterlimit="10" d="M265.7 39.1h97.5v24h-97.5v-24z"/>
  <path opacity=".5" fill="none" stroke="#FFF" stroke-width="2.5387" stroke-miterlimit="10" d="M713.8 39.1h66v28.8h-66V39.1z"/>
  <path opacity=".5" fill="none" stroke="#FFF" stroke-width="2.5387" stroke-miterlimit="10" d="M801.2 39.1h66v28.8h-66V39.1z"/>
  <path opacity=".5" fill="none" stroke="#FFF" stroke-width="2.5387" stroke-miterlimit="10" d="M888.5 39.1h66v28.8h-66V39.1z"/>
  <path opacity=".5" fill="none" stroke="#FFF" stroke-width="2.5387" stroke-miterlimit="10" d="M975.8 39.1h66v28.8h-66V39.1z"/>
  <path opacity=".5" fill="none" stroke="#FFF" stroke-width="2.5387" stroke-miterlimit="10" d="M1174.5 39.1h84.3v28.8h-84.3V39.1z"/>
  <path opacity=".5" fill="none" stroke="#FFF" stroke-width="2.5387" stroke-miterlimit="10" d="M1063.2 39.1h82.7v28.8h-82.7V39.1z"/>
  <path opacity=".5" fill="none" stroke="#FFF" stroke-width="2.5387" stroke-miterlimit="10" d="M375.5 39.1h213.7v103.3H375.5V39.1z"/>
  <path opacity=".5" fill="none" stroke="#FFF" stroke-width="2.5387" stroke-miterlimit="10" d="M462.5 40.4h39.7v22.7h-39.7V40.4z"/>
  <path opacity=".5" fill="none" stroke="#FFF" stroke-width="2.5387" stroke-miterlimit="10" d="M436.3 79.4h26.3v50h-26.3v-50z"/>
  <path opacity=".5" fill="none" stroke="#FFF" stroke-width="2.5387" stroke-miterlimit="10" d="M375.5 89.4h60.8v20h-60.8v-20z"/>
  <path opacity=".5" fill="none" stroke="#FFF" stroke-width="2.5387" stroke-miterlimit="10" d="M527.8 129.4h-26.3v-50h26.3v50z"/>
  <path opacity=".5" fill="none" stroke="#FFF" stroke-width="2.5387" stroke-miterlimit="10" d="M588.5 109.4h-60.8v-20h60.8v20z"/>
  <path opacity=".5" fill="none" stroke="#FFF" stroke-width="2.5387" stroke-miterlimit="10" d="M502.2 40.4h43.5v22.7h-43.5V40.4z"/>
  <path opacity=".5" fill="none" stroke="#FFF" stroke-width="2.5387" stroke-miterlimit="10" d="M545.7 40.4h43.5v22.7h-43.5V40.4z"/>
  <path opacity=".5" fill="none" stroke="#FFF" stroke-width="2.5387" stroke-miterlimit="10" d="M375.5 40.4H419v22.7h-43.5V40.4z"/>
  <path opacity=".5" fill="none" stroke="#FFF" stroke-width="2.5387" stroke-miterlimit="10" d="M419 40.4h43.5v22.7H419V40.4z"/>
  <path opacity=".5" fill="none" stroke="#FFF" stroke-width="3" stroke-miterlimit="10" d="M541 801.9v32H348v-32h107v-9h43v9h43z"/>
  <path opacity=".5" fill="none" stroke="#FFF" stroke-width="3" stroke-miterlimit="10" d="M1236 769.9h35v12h14v15h15v37h-63.9l-.1-64z"/>
</svg>
